Coordinates
version=1
nRows=30
nColumns=19
inDegrees=yes

Units are S.I. units (second, meters, Newtons, ...)
If the header above contains a line with 'inDegrees', this indicates whether rotational values are in degrees (yes) or radians (no).

endheader
time	pelvis_tilt	pelvis_list	pelvis_rotation	pelvis_tx	pelvis_ty	pelvis_tz	hip_flexion_r	hip_adduction_r	hip_rotation_r	knee_angle_r	knee_angle_r_beta	ankle_angle_r	hip_flexion_l	hip_adduction_l	hip_rotation_l	knee_angle_l	knee_angle_l_beta	ankle_angle_l
     17.11333333	      0.66563421	      5.67332230	      4.67913279	      2.24990179	      0.92165776	      1.02968599	    -17.96583211	     -9.65166280	    -12.70902177	     98.07818193	      1.71178720	     -7.98472490	     24.28097071	     10.20794740	     -5.87369172	     20.53793072	      0.35845451	     -2.60337533
     17.12000000	      0.97391656	      6.16645986	      5.18351733	      2.24897214	      0.91666999	      1.02972729	    -16.50331062	    -10.29322797	    -12.68115875	    102.65197967	      1.79161503	     -7.43271017	     23.76734472	     10.69580675	     -5.62166119	     23.39571755	      0.40833230	     -1.31185480
     17.12666667	      0.32142291	      6.09070958	      5.78070516	      2.24765412	      0.91043431	      1.02961193	    -13.59813364	    -10.41205333	    -12.37574955	    107.25406940	      1.87193665	     -6.98319021	     24.43917919	     10.72830589	     -5.06096540	     26.68495859	      0.46574039	      0.45727398
     17.13333333	     -0.10078588	      6.19796703	      6.35627515	      2.24620478	      0.90439846	      1.02948985	    -10.88459518	    -10.84808146	    -12.12300376	    111.58639423	      1.94754998	     -6.54668373	     24.62763901	     10.97866306	     -4.50025902	     29.71427776	      0.51861198	      2.52819011
     17.14000000	     -0.64755697	      6.24553640	      6.96742060	      2.24451977	      0.89832594	      1.02933796	     -7.84413138	    -11.31271841	    -11.80650992	    115.68481255	      2.01908087	     -6.15535414	     24.80207179	     11.23822992	     -3.84155497	     32.60687363	      0.56909730	      4.92024320
     17.14666667	     -0.90513706	      6.23568621	      7.78265863	      2.24304178	      0.89302991	      1.02908034	     -5.10689770	    -11.68272801	    -11.70514707	    119.20985441	      2.08060446	     -5.87015961	     24.39698120	     11.51437868	     -2.91530317	     35.22821438	      0.61484833	      7.62136720
     17.15333333	      1.72509150	      6.29000103	     10.00945464	      2.24578981	      0.89298229	      1.02818066	     -7.05750465	    -11.21900932	    -13.89152075	    119.90163446	      2.09267830	     -6.18000145	     19.78469158	     11.82590703	     -0.41357766	     36.92373954	      0.64444083	     10.65249197
     17.16000000	      4.84921304	      6.34659397	     12.17246082	      2.24865998	      0.89434720	      1.02750475	     -9.40870525	    -10.46748311	    -16.07775376	    119.94982063	      2.09351931	     -6.54232741	     14.25725109	     11.58883464	      2.22328989	     38.04592595	      0.66402667	     13.71979725
     17.16666667	      7.69073940	      6.29021791	     13.89276874	      2.25059106	      0.89606216	      1.02712697	    -10.87016549	     -9.69138902	    -17.68108311	    119.96485195	      2.09378165	     -6.83293206	      8.89560762	     10.76257292	      4.52669717	     38.63341363	      0.67428027	     16.59733824
     17.17333333	     10.20517950	      6.00541210	     15.18168179	      2.25144134	      0.89808028	      1.02689176	    -11.36606075	     -8.87240137	    -18.70735780	    119.97170350	      2.09390124	     -6.96043618	      3.85435803	      9.39059952	      6.42152704	     38.72563369	      0.67588981	     19.13816174
     17.18000000	     12.22200575	      5.41303762	     16.16331416	      2.25118223	      0.90024041	      1.02664450	    -10.77193837	     -8.00787581	    -19.29744395	    119.97520319	      2.09396232	     -6.91307901	     -0.63029112	      7.60150322	      7.96321934	     38.34585697	      0.66926146	     21.22955758
     17.18666667	     13.67327697	      4.51598434	     16.84096948	      2.24991571	      0.90238258	      1.02632492	     -9.08129507	     -7.15448736	    -19.50103979	    119.97695104	      2.09399282	     -6.67098899	     -4.45199497	      5.55115263	      9.10554467	     37.58377205	      0.65596057	     22.78178324
     17.19333333	     14.29220109	      3.22156497	     17.33808717	      2.24769074	      0.90422126	      1.02577830	     -6.04419742	     -6.28445827	    -19.49173395	    119.97752185	      2.09400278	     -6.21200720	     -7.24453399	      3.32885411	      9.87969654	     36.60064744	      0.63880181	     23.75654207
     17.20000000	     14.40704154	      2.02850025	     17.80742059	      2.24435207	      0.90580070	      1.02498816	     -2.37617585	     -5.86024937	    -19.54180332	    119.97672351	      2.09398885	     -5.56631465	     -9.50688852	      1.42134886	     10.71926458	     35.40496912	      0.61793328	     23.98130245
     17.20666667	     13.34942863	      0.38204990	     17.17291728	      2.24133617	      0.90684195	      1.02489312	      3.16210186	     -5.20710829	    -18.44354308	    119.97560569	      2.09396934	     -4.89075283	    -10.59008504	     -0.42733156	     10.14013370	     33.88829359	      0.59146230	     23.58235187
     17.21333333	     11.50985787	     -0.98694140	     16.42421040	      2.23767720	      0.90714531	      1.02476915	      9.49785490	     -5.05923611	    -17.33564371	    119.97289474	      2.09392203	     -4.19222333	    -10.87620841	     -1.63958000	      9.64280865	     32.40647460	      0.56559968	     22.50043745
     17.22000000	      8.75152245	     -2.00234519	     15.16327762	      2.23404383	      0.90656601	      1.02507711	     16.84576919	     -5.26528405	    -15.69014429	    119.96812820	      2.09383883	     -3.54886456	    -10.34289121	     -2.13132016	      8.75305764	     30.85654892	      0.53854837	     20.70859337
     17.22666667	      5.25119695	     -2.36168824	     13.39653673	      2.23060962	      0.90504235	      1.02592916	     24.94749932	     -5.86318488	    -13.33933639	    119.95913819	      2.09368193	     -3.03424101	     -9.25094516	     -1.71952374	      7.50765447	     29.20052243	      0.50964526	     18.26445461
     17.23333333	      1.30038696	     -1.85987127	     11.27727644	      2.22750101	      0.90255165	      1.02733668	     33.48114289	     -6.70362327	    -10.18819444	    119.93874634	      2.09332602	     -2.62140499	     -7.87422902	     -0.38022491	      5.94869527	     27.42884643	      0.47872368	     15.19142158
     17.24000000	     -2.55834377	     -0.32566340	      9.09455592	      2.22499206	      0.89940488	      1.02903156	     41.79750910	     -7.77497493	     -6.32218947	    119.85181732	      2.09180883	     -2.28047961	     -6.80751201	      1.88382035	      4.26304978	     25.38241314	      0.44300668	     11.55043538
     17.24666667	     -4.57627243	      0.61572802	      7.65965323	      2.22496304	      0.89964815	      1.02976618	     46.94462166	     -7.97756836	     -3.98925410	    118.25063140	      2.06386286	     -1.90819735	     -7.96340233	      3.02378024	      3.06391517	     22.46826047	      0.39214512	      7.24096648
     17.25333333	     -4.94074762	     -0.14977691	      7.07504914	      2.22755082	      0.90445900	      1.02912826	     48.67869319	     -7.08210932	     -4.28328710	    114.62610777	      2.00060299	     -1.57246753	    -10.98627771	      2.03002937	      2.38771634	     18.83790535	      0.32878347	      2.39870968
     17.26000000	     -5.39264716	     -1.00577249	      6.50494962	      2.23038339	      0.90932736	      1.02863577	     50.20078064	     -6.09383444	     -4.75038375	    110.68694501	      1.93185163	     -1.21547527	    -13.76052152	      1.01719286	      1.65002014	     15.38850366	      0.26858006	     -2.69703579
     17.26666667	     -5.83157816	     -1.93181720	      6.13131880	      2.23348215	      0.91415731	      1.02788377	     51.35184835	     -5.33886552	     -5.56445565	    106.47760029	      1.85838470	     -0.85268808	    -16.32644471	     -0.06057517	      0.86188737	     12.30316341	      0.21473071	     -7.53420056
     17.27333333	     -6.51266860	     -2.78686424	      5.76885760	      2.23660392	      0.91856757	      1.02725833	     52.54969790	     -4.71115138	     -6.41732174	    102.08483212	      1.78171644	     -0.52796597	    -18.33229572	     -1.00325051	     -0.08909151	      9.81141001	      0.17124141	    -11.91803691
     17.28000000	     -7.08242024	     -3.56423929	      5.55868790	      2.23975763	      0.92291265	      1.02653242	     53.33607775	     -4.34674269	     -7.47323623	     97.48123206	      1.70136846	     -0.16625284	    -20.13519819	     -1.88987056	     -1.10157060	      7.98499449	      0.13936444	    -15.62941886
     17.28666667	     -7.75187093	     -4.17401289	      5.36010489	      2.24282781	      0.92689275	      1.02592753	     54.02966306	     -4.16722895	     -8.52823680	     92.71490329	      1.61818033	      0.17296597	    -21.49282854	     -2.58467534	     -2.22910825	      6.91952524	      0.12076850	    -18.56296978
     17.29333333	     -8.34681574	     -4.59985194	      5.18445732	      2.24576338	      0.93067927	      1.02549697	     54.43407330	     -4.14242408	     -9.59504120	     87.77640017	      1.53198719	      0.49550690	    -22.59862272	     -3.10681133	     -3.42960947	      6.63144452	      0.11574054	    -20.67204153
     17.30000000	     -8.85657494	     -4.84541316	      5.01398328	      2.24852726	      0.93421566	      1.02525923	     54.55275924	     -4.24489444	    -10.69441563	     82.66440667	      1.44276607	      0.76984031	    -23.46627296	     -3.47811937	     -4.72089620	      7.14636035	      0.12472752	    -21.96928891
     17.30666667	     -9.27905985	     -4.90701431	      4.82768597	      2.25100653	      0.93744519	      1.02531959	     54.41716573	     -4.40352600	    -11.78084209	     77.39494394	      1.35079660	      0.96045774	    -24.09315786	     -3.71770348	     -6.06894903	      8.48357564	      0.14806633	    -22.50360468
